<svg width="144" height="22" viewBox="0 0 144 22" fill="none" xmlns="http://www.w3.org/2000/svg">
<path d="M7.4 0.977253C8.0188 0.619987 8.7812 0.619987 9.4 0.977253L14.6746 4.02255C15.2934 4.37982 15.6746 5.04007 15.6746 5.7546V11.8452C15.6746 12.5597 15.2934 13.22 14.6746 13.5773L9.4 16.6226C8.7812 16.9798 8.0188 16.9798 7.4 16.6226L2.12539 13.5773C1.50658 13.22 1.12539 12.5597 1.12539 11.8452V5.7546C1.12539 5.04007 1.50658 4.37982 2.12539 4.02255L7.4 0.977253Z" fill="url(#paint0_linear_23_17551)"/>
<path d="M14.6501 3.81017C15.1142 3.54222 15.6859 3.54222 16.15 3.81017L22.4639 7.45547C22.928 7.72342 23.2139 8.21861 23.2139 8.75451V16.0451C23.2139 16.581 22.928 17.0762 22.4639 17.3441L16.15 20.9894C15.6859 21.2574 15.1142 21.2574 14.65 20.9894L8.3362 17.3441C7.8721 17.0762 7.5862 16.581 7.5862 16.0451V8.7545C7.5862 8.21861 7.8721 7.72342 8.3362 7.45547L14.6501 3.81017Z" fill="white" stroke="white"/>
<path d="M14.9041 5.26127C15.2785 5.04512 15.7398 5.04512 16.1141 5.26127L21.3887 8.30657C21.7631 8.52271 21.9937 8.92216 21.9937 9.35446V15.4451C21.9937 15.8773 21.7631 16.2768 21.3887 16.4929L16.1141 19.5382C15.7398 19.7544 15.2785 19.7544 14.9041 19.5382L9.62952 16.4929C9.25514 16.2768 9.02452 15.8773 9.02452 15.4451V9.35446C9.02452 8.92216 9.25514 8.52271 9.62952 8.30657L14.9041 5.26127Z" fill="white" stroke="#8456CF" stroke-width="1.58"/>
<path d="M31.9375 4.45455H36.8523L40.233 12.6932H40.4034L43.7841 4.45455H48.6989V19H44.8352V10.5909H44.7216L41.483 18.8864H39.1534L35.9148 10.5341H35.8011V19H31.9375V4.45455ZM50.5703 19V4.45455H61.0533V7.63636H54.5192V10.1364H60.5135V13.3182H54.5192V15.8182H61.0249V19H50.5703ZM63.0117 4.45455H67.9265L71.3072 12.6932H71.4776L74.8583 4.45455H79.7731V19H75.9094V10.5909H75.7958L72.5572 18.8864H70.2276L66.989 10.5341H66.8754V19H63.0117V4.45455ZM89.4854 9C89.4476 8.52652 89.27 8.1572 88.9528 7.89205C88.6403 7.62689 88.1644 7.49432 87.5252 7.49432C87.118 7.49432 86.7842 7.54403 86.5238 7.64347C86.2681 7.73816 86.0787 7.86837 85.9556 8.03409C85.8325 8.19981 85.7686 8.3892 85.7638 8.60227C85.7544 8.77746 85.7852 8.93608 85.8562 9.07812C85.9319 9.21544 86.0503 9.34091 86.2113 9.45455C86.3723 9.56345 86.5782 9.66288 86.8292 9.75284C87.0801 9.8428 87.3784 9.9233 87.7241 9.99432L88.9173 10.25C89.7222 10.4205 90.4111 10.6454 90.984 10.9247C91.5569 11.2041 92.0257 11.5331 92.3903 11.9119C92.7549 12.286 93.0224 12.7074 93.1928 13.1761C93.368 13.6449 93.458 14.1562 93.4627 14.7102C93.458 15.6667 93.2189 16.4763 92.7454 17.1392C92.2719 17.8021 91.5948 18.3063 90.7141 18.652C89.8382 18.9976 88.7847 19.1705 87.5536 19.1705C86.2894 19.1705 85.1862 18.9834 84.244 18.6094C83.3065 18.2353 82.5773 17.66 82.0565 16.8835C81.5404 16.1023 81.2799 15.1032 81.2752 13.8864H85.0252C85.0489 14.3314 85.1602 14.7055 85.359 15.0085C85.5579 15.3116 85.8372 15.5412 86.1971 15.6974C86.5617 15.8537 86.9949 15.9318 87.4968 15.9318C87.9182 15.9318 88.271 15.8797 88.555 15.7756C88.8391 15.6714 89.0546 15.527 89.2013 15.3423C89.3481 15.1577 89.4239 14.947 89.4286 14.7102C89.4239 14.4877 89.3505 14.2936 89.2085 14.1278C89.0711 13.9574 88.8439 13.8059 88.5266 13.6733C88.2094 13.536 87.7809 13.4081 87.2411 13.2898L85.7923 12.9773C84.5044 12.6979 83.4888 12.2315 82.7454 11.5781C82.0067 10.92 81.6398 10.0227 81.6445 8.88636C81.6398 7.96307 81.886 7.15578 82.3832 6.46449C82.8851 5.76847 83.5787 5.22633 84.4641 4.83807C85.3543 4.44981 86.3746 4.25568 87.5252 4.25568C88.6995 4.25568 89.7151 4.45218 90.5721 4.84517C91.4291 5.23816 92.0896 5.79214 92.5536 6.5071C93.0224 7.21733 93.2591 8.0483 93.2638 9H89.4854ZM98.658 19L94.3683 4.45455H98.7717L100.76 13.4034H100.874L103.232 4.45455H106.698L109.056 13.4318H109.169L111.158 4.45455H115.561L111.272 19H107.493L105.022 10.875H104.908L102.436 19H98.658ZM118.919 19H114.658L119.459 4.45455H124.857L129.658 19H125.396L122.214 8.46023H122.101L118.919 19ZM118.124 13.2614H126.135V16.2159H118.124V13.2614ZM131.059 19V4.45455H137.337C138.417 4.45455 139.361 4.66761 140.171 5.09375C140.98 5.51989 141.61 6.11884 142.06 6.89062C142.51 7.66241 142.735 8.56439 142.735 9.59659C142.735 10.6383 142.503 11.5402 142.039 12.3026C141.579 13.0649 140.933 13.652 140.1 14.0639C139.271 14.4759 138.303 14.6818 137.195 14.6818H133.445V11.6136H136.4C136.864 11.6136 137.259 11.5331 137.586 11.3722C137.917 11.2064 138.17 10.9721 138.346 10.669C138.525 10.366 138.615 10.0085 138.615 9.59659C138.615 9.17992 138.525 8.82481 138.346 8.53125C138.17 8.23295 137.917 8.00568 137.586 7.84943C137.259 7.68845 136.864 7.60795 136.4 7.60795H135.007V19H131.059Z" fill="#101010"/>
<defs>
<linearGradient id="paint0_linear_23_17551" x1="4.5" y1="-8" x2="11.5" y2="12" gradientUnits="userSpaceOnUse">
<stop stop-color="#00A3FF"/>
<stop offset="1" stop-color="#B756CF"/>
</linearGradient>
</defs>
</svg>
