<svg width="146" height="18" viewBox="0 0 146 18" fill="none" xmlns="http://www.w3.org/2000/svg">
<path fill-rule="evenodd" clip-rule="evenodd" d="M9.21773 1.61304C8.90151 1.22289 8.34647 0.994629 7.71402 0.994629H7.39846C6.61673 0.994629 5.83937 1.34226 5.39492 1.89061L0.358674 8.10417C-0.0857728 8.65252 -0.119742 9.30588 0.271123 9.78811L5.6199 16.3873C5.9356 16.7768 6.48933 17.0049 7.12049 17.0057C7.12153 17.0057 7.12257 17.0057 7.12361 17.0057L7.43917 17.0057C8.2209 17.0057 8.99826 16.658 9.44271 16.1097L14.479 9.89613C14.9234 9.34779 14.9574 8.69443 14.5665 8.21219L9.21773 1.61304Z" fill="#2A59FF"/>
<mask id="path-2-inside-1_56_319" fill="white">
<path fill-rule="evenodd" clip-rule="evenodd" d="M14.4482 1.61304C14.132 1.22289 13.5769 0.994629 12.9445 0.994629H12.6289C11.8472 0.994629 11.0698 1.34226 10.6254 1.89061L5.58914 8.10417C5.1447 8.65252 5.11073 9.30588 5.50159 9.78811L10.8504 16.3873C11.1661 16.7768 11.7198 17.0049 12.351 17.0057C12.352 17.0057 12.353 17.0057 12.3541 17.0057L12.6696 17.0057C13.4514 17.0057 14.2287 16.658 14.6732 16.1097L19.7094 9.89613C20.1539 9.34779 20.1878 8.69443 19.797 8.21219L14.4482 1.61304Z"/>
</mask>
<path fill-rule="evenodd" clip-rule="evenodd" d="M14.4482 1.61304C14.132 1.22289 13.5769 0.994629 12.9445 0.994629H12.6289C11.8472 0.994629 11.0698 1.34226 10.6254 1.89061L5.58914 8.10417C5.1447 8.65252 5.11073 9.30588 5.50159 9.78811L10.8504 16.3873C11.1661 16.7768 11.7198 17.0049 12.351 17.0057C12.352 17.0057 12.353 17.0057 12.3541 17.0057L12.6696 17.0057C13.4514 17.0057 14.2287 16.658 14.6732 16.1097L19.7094 9.89613C20.1539 9.34779 20.1878 8.69443 19.797 8.21219L14.4482 1.61304Z" fill="white"/>
<path d="M14.4482 1.61304L13.0119 2.77717L14.4482 1.61304ZM10.6254 1.89061L9.18913 0.72648L9.18913 0.72648L10.6254 1.89061ZM5.58914 8.10417L4.15288 6.94005L4.15288 6.94005L5.58914 8.10417ZM5.50159 9.78811L6.93786 8.62399L6.93786 8.62398L5.50159 9.78811ZM10.8504 16.3873L9.4141 17.5514L9.4141 17.5514L10.8504 16.3873ZM12.351 17.0057L12.3488 18.8545H12.351V17.0057ZM12.3541 17.0057V18.8545H12.3541L12.3541 17.0057ZM12.6696 17.0057V15.1569H12.6696L12.6696 17.0057ZM14.6732 16.1097L13.2369 14.9456L14.6732 16.1097ZM19.7094 9.89613L21.1457 11.0603H21.1457L19.7094 9.89613ZM19.797 8.21219L21.2332 7.04807V7.04806L19.797 8.21219ZM12.9445 2.84343C12.9918 2.84343 13.0303 2.84772 13.0594 2.85321C13.0887 2.85873 13.1058 2.86493 13.1117 2.86738C13.1267 2.87351 13.0764 2.85674 13.0119 2.77717L15.8845 0.448912C15.1286 -0.483598 13.9767 -0.854168 12.9445 -0.854168V2.84343ZM12.6289 2.84343H12.9445V-0.854168H12.6289V2.84343ZM12.0617 3.05474C12.1143 2.98975 12.3366 2.84343 12.6289 2.84343V-0.854168C11.3578 -0.854168 10.0253 -0.305223 9.18913 0.72648L12.0617 3.05474ZM7.02541 9.2683L12.0617 3.05474L9.18913 0.72648L4.15288 6.94005L7.02541 9.2683ZM6.93786 8.62398C7.02956 8.73713 7.08701 8.90194 7.07843 9.06693C7.07056 9.21818 7.01373 9.28271 7.02541 9.2683L4.15288 6.94005C3.26545 8.03492 3.02401 9.66749 4.06533 10.9522L6.93786 8.62398ZM12.2866 15.2231L6.93786 8.62399L4.06533 10.9522L9.4141 17.5514L12.2866 15.2231ZM12.3532 15.1569C12.306 15.1568 12.2677 15.1525 12.2387 15.147C12.2096 15.1415 12.1926 15.1353 12.1868 15.1329C12.1721 15.1268 12.2222 15.1437 12.2866 15.2231L9.4141 17.5514C10.1687 18.4824 11.3182 18.8532 12.3488 18.8545L12.3532 15.1569ZM12.3541 15.1569C12.3545 15.1569 12.3549 15.1569 12.3542 15.1569C12.3538 15.1569 12.3525 15.1569 12.351 15.1569V18.8545C12.3505 18.8545 12.3502 18.8545 12.3508 18.8545C12.3512 18.8545 12.3526 18.8545 12.3541 18.8545V15.1569ZM12.6696 15.1569L12.3541 15.1569L12.3541 18.8545L12.6697 18.8545L12.6696 15.1569ZM13.2369 14.9456C13.1842 15.0106 12.962 15.1569 12.6696 15.1569V18.8545C13.9408 18.8545 15.2732 18.3055 16.1094 17.2738L13.2369 14.9456ZM18.2732 8.732L13.2369 14.9456L16.1094 17.2738L21.1457 11.0603L18.2732 8.732ZM18.3607 9.37632C18.269 9.26317 18.2116 9.09837 18.2201 8.93338C18.228 8.78213 18.2848 8.71759 18.2732 8.732L21.1457 11.0603C22.0331 9.96538 22.2746 8.33281 21.2332 7.04807L18.3607 9.37632ZM13.0119 2.77717L18.3607 9.37632L21.2332 7.04806L15.8845 0.448912L13.0119 2.77717Z" fill="#2A59FF" mask="url(#path-2-inside-1_56_319)"/>
<path d="M26.0684 1.21895H31.347L34.978 10.057H35.161L38.792 1.21895H44.0706V16.8228H39.921V7.80181H39.7989L36.3205 16.7009H33.8185L30.3401 7.74085H30.218V16.8228H26.0684V1.21895Z" fill="#151718"/>
<path d="M46.0806 16.8228V1.21895H57.3397V4.63228H50.3218V7.31419H56.76V10.7275H50.3218V13.4094H57.3092V16.8228H46.0806Z" fill="#151718"/>
<path d="M59.4431 1.21895H64.7218L68.3527 10.057H68.5358L72.1668 1.21895H77.4454V16.8228H73.2957V7.80181H73.1737L69.6953 16.7009H67.1933L63.7149 7.74085H63.5928V16.8228H59.4431V1.21895Z" fill="#151718"/>
<path d="M87.8768 6.09514C87.8361 5.5872 87.6454 5.19101 87.3047 4.90657C86.9691 4.62212 86.458 4.4799 85.7715 4.4799C85.3341 4.4799 84.9756 4.53323 84.6959 4.6399C84.4213 4.74149 84.2179 4.88117 84.0857 5.05895C83.9534 5.23673 83.8848 5.4399 83.8797 5.66847C83.8695 5.85641 83.9026 6.02657 83.9789 6.17895C84.0602 6.32625 84.1874 6.46085 84.3603 6.58276C84.5332 6.69958 84.7544 6.80625 85.0239 6.90276C85.2934 6.99927 85.6138 7.08562 85.985 7.16181L87.2666 7.43609C88.1311 7.61895 88.871 7.86022 89.4863 8.1599C90.1017 8.45958 90.6051 8.8126 90.9967 9.21895C91.3883 9.62022 91.6756 10.0723 91.8587 10.5751C92.0468 11.078 92.1435 11.6266 92.1485 12.2209C92.1435 13.2469 91.8866 14.1155 91.3781 14.8266C90.8696 15.5377 90.1423 16.0786 89.1965 16.4494C88.2557 16.8202 87.1242 17.0056 85.802 17.0056C84.4442 17.0056 83.2593 16.805 82.2473 16.4037C81.2404 16.0024 80.4572 15.3853 79.8978 14.5523C79.3435 13.7142 79.0638 12.6424 79.0587 11.337H83.0864C83.1118 11.8145 83.2313 12.2158 83.4449 12.5409C83.6585 12.8659 83.9585 13.1123 84.345 13.2799C84.7366 13.4475 85.2019 13.5313 85.7409 13.5313C86.1935 13.5313 86.5724 13.4755 86.8775 13.3637C87.1827 13.252 87.414 13.097 87.5717 12.8989C87.7293 12.7009 87.8107 12.4748 87.8158 12.2209C87.8107 11.9821 87.7319 11.7739 87.5793 11.5961C87.4318 11.4132 87.1877 11.2507 86.847 11.1085C86.5063 10.9612 86.0461 10.824 85.4663 10.697L83.9102 10.3618C82.527 10.0621 81.4362 9.56181 80.6378 8.86085C79.8444 8.15482 79.4503 7.19228 79.4554 5.97324C79.4503 4.98276 79.7148 4.11673 80.2487 3.37514C80.7878 2.62847 81.5328 2.04688 82.4838 1.63038C83.4398 1.21387 84.5357 1.00562 85.7715 1.00562C87.0326 1.00562 88.1234 1.21641 89.0439 1.638C89.9644 2.05958 90.6738 2.65387 91.1721 3.42085C91.6756 4.18276 91.9299 5.07419 91.935 6.09514H87.8768Z" fill="#151718"/>
<path d="M97.7285 16.8228L93.1211 1.21895H97.8505L99.9864 10.8189H100.108L102.641 1.21895H106.363L108.896 10.8494H109.018L111.154 1.21895H115.883L111.276 16.8228H107.218L104.563 8.10657H104.441L101.787 16.8228H97.7285Z" fill="#151718"/>
<path d="M119.489 16.8228H114.913L120.069 1.21895H125.867L131.023 16.8228H126.446L123.029 5.51609H122.907L119.489 16.8228ZM118.635 10.6666H127.24V13.8361H118.635V10.6666Z" fill="#151718"/>
<path d="M132.528 16.8228V1.21895H139.271C140.43 1.21895 141.445 1.44752 142.315 1.90466C143.184 2.36181 143.861 3.00435 144.344 3.83228C144.827 4.66022 145.068 5.62784 145.068 6.73514C145.068 7.8526 144.819 8.82022 144.321 9.638C143.828 10.4558 143.133 11.0856 142.238 11.5275C141.348 11.9694 140.308 12.1904 139.118 12.1904H135.091V8.89895H138.264C138.762 8.89895 139.187 8.8126 139.538 8.6399C139.894 8.46212 140.166 8.21069 140.354 7.88562C140.547 7.56054 140.644 7.17704 140.644 6.73514C140.644 6.28816 140.547 5.9072 140.354 5.59228C140.166 5.27228 139.894 5.02847 139.538 4.86085C139.187 4.68815 138.762 4.60181 138.264 4.60181H136.769V16.8228H132.528Z" fill="#151718"/>
</svg>
