<svg width="174" height="40" viewBox="0 0 174 40" fill="none" xmlns="http://www.w3.org/2000/svg">
<path d="M50.096 29H46.52C46.216 29 45.992 28.936 45.848 28.808C45.72 28.664 45.656 28.44 45.656 28.136V12.584C45.656 12.28 45.72 12.064 45.848 11.936C45.992 11.792 46.216 11.72 46.52 11.72H50.384C50.64 11.72 50.848 11.776 51.008 11.888C51.184 12 51.344 12.184 51.488 12.44L53.648 16.352C53.728 16.496 53.792 16.6 53.84 16.664C53.904 16.728 53.984 16.76 54.08 16.76H54.296C54.392 16.76 54.464 16.728 54.512 16.664C54.576 16.6 54.648 16.496 54.728 16.352L56.864 12.44C57.008 12.184 57.16 12 57.32 11.888C57.496 11.776 57.712 11.72 57.968 11.72H61.856C62.16 11.72 62.376 11.792 62.504 11.936C62.648 12.064 62.72 12.28 62.72 12.584V28.136C62.72 28.44 62.648 28.664 62.504 28.808C62.376 28.936 62.16 29 61.856 29H58.16C57.856 29 57.632 28.936 57.488 28.808C57.36 28.664 57.296 28.44 57.296 28.136V19.688L55.88 22.304C55.736 22.576 55.56 22.776 55.352 22.904C55.16 23.016 54.912 23.072 54.608 23.072H53.648C53.344 23.072 53.088 23.016 52.88 22.904C52.688 22.776 52.52 22.576 52.376 22.304L50.96 19.688V28.136C50.96 28.44 50.888 28.664 50.744 28.808C50.616 28.936 50.4 29 50.096 29Z" fill="#261924"/>
<path d="M78.0232 29H66.8872C66.5832 29 66.3592 28.936 66.2152 28.808C66.0872 28.664 66.0232 28.44 66.0232 28.136V12.584C66.0232 12.28 66.0872 12.064 66.2152 11.936C66.3592 11.792 66.5832 11.72 66.8872 11.72H78.0232C78.3272 11.72 78.5432 11.792 78.6712 11.936C78.8152 12.064 78.8872 12.28 78.8872 12.584V15.392C78.8872 15.696 78.8152 15.92 78.6712 16.064C78.5432 16.192 78.3272 16.256 78.0232 16.256H71.3992V18.104H76.0792C76.3832 18.104 76.5992 18.176 76.7272 18.32C76.8712 18.448 76.9432 18.664 76.9432 18.968V21.536C76.9432 21.84 76.8712 22.064 76.7272 22.208C76.5992 22.336 76.3832 22.4 76.0792 22.4H71.3992V24.464H78.0232C78.3272 24.464 78.5432 24.536 78.6712 24.68C78.8152 24.808 78.8872 25.024 78.8872 25.328V28.136C78.8872 28.44 78.8152 28.664 78.6712 28.808C78.5432 28.936 78.3272 29 78.0232 29Z" fill="#261924"/>
<path d="M86.1663 29H82.5903C82.2863 29 82.0623 28.936 81.9183 28.808C81.7903 28.664 81.7263 28.44 81.7263 28.136V12.584C81.7263 12.28 81.7903 12.064 81.9183 11.936C82.0623 11.792 82.2863 11.72 82.5903 11.72H86.4543C86.7103 11.72 86.9183 11.776 87.0783 11.888C87.2543 12 87.4143 12.184 87.5583 12.44L89.7183 16.352C89.7983 16.496 89.8623 16.6 89.9103 16.664C89.9743 16.728 90.0543 16.76 90.1503 16.76H90.3663C90.4623 16.76 90.5343 16.728 90.5823 16.664C90.6463 16.6 90.7183 16.496 90.7983 16.352L92.9343 12.44C93.0783 12.184 93.2303 12 93.3903 11.888C93.5663 11.776 93.7823 11.72 94.0383 11.72H97.9263C98.2303 11.72 98.4463 11.792 98.5743 11.936C98.7183 12.064 98.7903 12.28 98.7903 12.584V28.136C98.7903 28.44 98.7183 28.664 98.5743 28.808C98.4463 28.936 98.2303 29 97.9263 29H94.2303C93.9263 29 93.7023 28.936 93.5583 28.808C93.4303 28.664 93.3663 28.44 93.3663 28.136V19.688L91.9503 22.304C91.8063 22.576 91.6303 22.776 91.4223 22.904C91.2303 23.016 90.9823 23.072 90.6783 23.072H89.7183C89.4143 23.072 89.1583 23.016 88.9503 22.904C88.7583 22.776 88.5903 22.576 88.4463 22.304L87.0303 19.688V28.136C87.0303 28.44 86.9583 28.664 86.8143 28.808C86.6863 28.936 86.4703 29 86.1663 29Z" fill="#261924"/>
<path d="M110.11 29H102.526C102.222 29 101.998 28.936 101.854 28.808C101.726 28.664 101.662 28.44 101.662 28.136V25.328C101.662 25.024 101.726 24.808 101.854 24.68C101.998 24.536 102.222 24.464 102.526 24.464H108.982C109.19 24.464 109.342 24.4 109.438 24.272C109.55 24.128 109.606 23.96 109.606 23.768C109.606 23.496 109.55 23.296 109.438 23.168C109.342 23.04 109.19 22.968 108.982 22.952L105.382 22.448C104.262 22.288 103.358 21.92 102.67 21.344C101.998 20.768 101.662 19.808 101.662 18.464V15.944C101.662 14.584 102.102 13.544 102.982 12.824C103.862 12.088 105.078 11.72 106.63 11.72H113.35C113.654 11.72 113.87 11.792 113.998 11.936C114.142 12.064 114.214 12.28 114.214 12.584V15.44C114.214 15.744 114.142 15.968 113.998 16.112C113.87 16.24 113.654 16.304 113.35 16.304H107.758C107.55 16.304 107.39 16.376 107.278 16.52C107.166 16.648 107.11 16.816 107.11 17.024C107.11 17.232 107.166 17.408 107.278 17.552C107.39 17.696 107.55 17.776 107.758 17.792L111.334 18.272C112.454 18.432 113.358 18.8 114.046 19.376C114.734 19.952 115.078 20.912 115.078 22.256V24.776C115.078 26.136 114.63 27.184 113.734 27.92C112.854 28.64 111.646 29 110.11 29Z" fill="#261924"/>
<path d="M130.111 11.72H133.687C133.991 11.72 134.207 11.792 134.335 11.936C134.479 12.064 134.551 12.28 134.551 12.584V21.896C134.551 22.408 134.527 22.888 134.479 23.336C134.447 23.768 134.327 24.28 134.119 24.872L132.919 28.136C132.839 28.376 132.719 28.584 132.559 28.76C132.415 28.92 132.215 29 131.959 29H128.767C128.511 29 128.279 28.944 128.071 28.832C127.863 28.72 127.727 28.536 127.663 28.28L126.559 24.368C126.511 24.208 126.447 24.104 126.367 24.056C126.303 23.992 126.223 23.96 126.127 23.96H125.911C125.815 23.96 125.727 23.992 125.647 24.056C125.583 24.104 125.527 24.208 125.479 24.368L124.351 28.28C124.287 28.52 124.167 28.704 123.991 28.832C123.815 28.944 123.599 29 123.343 29H120.175C119.919 29 119.695 28.92 119.503 28.76C119.327 28.6 119.199 28.392 119.119 28.136L117.919 24.824C117.711 24.232 117.583 23.72 117.535 23.288C117.503 22.84 117.487 22.36 117.487 21.848V12.584C117.487 12.28 117.551 12.064 117.679 11.936C117.823 11.792 118.047 11.72 118.351 11.72H122.047C122.351 11.72 122.567 11.792 122.695 11.936C122.839 12.064 122.911 12.28 122.911 12.584V21.416L124.303 18.392C124.431 18.12 124.599 17.928 124.807 17.816C125.015 17.704 125.271 17.648 125.575 17.648H126.583C126.887 17.648 127.143 17.704 127.351 17.816C127.559 17.928 127.727 18.12 127.855 18.392L129.247 21.416V12.584C129.247 12.28 129.311 12.064 129.439 11.936C129.583 11.792 129.807 11.72 130.111 11.72Z" fill="#261924"/>
<path d="M143.912 16.76L142.784 20.408H146.552L145.424 16.76C145.36 16.616 145.288 16.512 145.208 16.448C145.144 16.384 145.064 16.352 144.968 16.352H144.368C144.272 16.352 144.184 16.384 144.104 16.448C144.04 16.512 143.976 16.616 143.912 16.76ZM142.544 28.136C142.544 28.44 142.472 28.664 142.328 28.808C142.2 28.936 141.984 29 141.68 29H138.152C137.848 29 137.624 28.936 137.48 28.808C137.352 28.664 137.288 28.44 137.288 28.136V21.8C137.288 21.32 137.36 20.768 137.504 20.144C137.664 19.52 137.904 18.792 138.224 17.96L140.312 12.512C140.408 12.24 140.552 12.04 140.744 11.912C140.952 11.784 141.216 11.72 141.536 11.72H147.992C148.296 11.72 148.544 11.784 148.736 11.912C148.944 12.04 149.096 12.24 149.192 12.512L151.28 17.96C151.6 18.792 151.832 19.52 151.976 20.144C152.136 20.768 152.216 21.32 152.216 21.8V28.136C152.216 28.44 152.144 28.664 152 28.808C151.872 28.936 151.656 29 151.352 29H147.728C147.408 29 147.168 28.936 147.008 28.808C146.864 28.664 146.792 28.44 146.792 28.136V24.776H142.544V28.136Z" fill="#261924"/>
<path d="M159.763 29H156.043C155.739 29 155.515 28.936 155.371 28.808C155.243 28.664 155.179 28.44 155.179 28.136V12.584C155.179 12.28 155.243 12.064 155.371 11.936C155.515 11.792 155.739 11.72 156.043 11.72H163.387C165.563 11.72 167.051 12.152 167.851 13.016C168.651 13.88 169.051 15.008 169.051 16.4V19.472C169.051 20.864 168.651 21.992 167.851 22.856C167.051 23.72 165.563 24.152 163.387 24.152H160.627V28.136C160.627 28.44 160.555 28.664 160.411 28.808C160.283 28.936 160.067 29 159.763 29ZM160.579 16.208V19.832H162.739C163.203 19.832 163.507 19.712 163.651 19.472C163.795 19.232 163.867 18.96 163.867 18.656V17.384C163.867 17.08 163.795 16.808 163.651 16.568C163.507 16.328 163.203 16.208 162.739 16.208H160.579Z" fill="#261924"/>
<path fill-rule="evenodd" clip-rule="evenodd" d="M18.6783 6.26748C18.7554 6.25055 18.8346 6.24588 18.9131 6.25364L24.4488 6.80101C24.5295 6.80899 24.6085 6.83003 24.6825 6.86329L30.7717 9.60013C30.8805 9.649 30.976 9.72309 31.0504 9.81625L35.2022 15.0163C35.2738 15.106 35.3239 15.211 35.3486 15.3232L36.7325 21.6179C36.7797 21.8325 36.7304 22.0571 36.5976 22.2322L32.4458 27.7059C32.279 27.9257 32.0051 28.0362 31.7325 27.9937L26.9881 27.2529L25.9554 29.091V33C25.9554 33.2987 25.7781 33.5689 25.5042 33.6879C25.2302 33.8069 24.9118 33.752 24.6935 33.5481L19.9275 29.0974H14.4107C14.1582 29.0974 13.9227 28.9703 13.784 28.7593L10.3161 23.4839L5.00094 21.3816C4.72698 21.2733 4.54183 21.0146 4.52766 20.7203L4.25087 14.9729C4.24063 14.7602 4.32126 14.5532 4.47267 14.4035L10.8387 8.1088C10.9396 8.00909 11.0666 7.94001 11.2051 7.90958L18.6783 6.26748ZM11.6346 22.7589L14.515 27.1407L20.4645 20.8054L13.7142 16.1332L11.6346 22.7589ZM15.2711 15.3866L21.3263 19.5777L24.152 13.9895L15.2711 15.3866ZM24.5917 12.4019L23.7497 8.2392L19.203 7.78962L14.9255 13.9225L24.5917 12.4019ZM13.568 13.2466L12.3225 9.19985L17.1269 8.14417L13.568 13.2466ZM11.0133 10.0456L12.288 14.1868H6.82519L11.0133 10.0456ZM5.78699 15.6868H12.2821L10.3384 21.8796L6.00264 20.1648L5.78699 15.6868ZM25.3997 8.83017L29.9914 10.8939L32.6026 14.1644L26.1253 12.4177L25.3997 8.83017ZM33.2711 15.8983L25.8761 13.9041L22.807 19.9734L29.5762 20.1965L33.2711 15.8983ZM29.3513 21.6899L23.2985 21.4904L26.9762 25.7329L30.7784 26.3265L29.3513 21.6899ZM32.1347 25.6339L35.1931 21.6017L34.206 17.1118L30.7493 21.1329L32.1347 25.6339ZM25.677 26.5242L22.0667 22.3594L21.1041 27.6896L24.7944 28.0951L25.677 26.5242ZM24.4554 29.5669L22.3843 29.3393L24.4554 31.2734V29.5669ZM19.5965 27.5974L20.4186 23.0455L16.1439 27.5974H19.5965Z" fill="url(#paint0_linear_336_2197)"/>
<defs>
<linearGradient id="paint0_linear_336_2197" x1="8.875" y1="12.4167" x2="28.4773" y2="33.1918" gradientUnits="userSpaceOnUse">
<stop stop-color="#FF65CB"/>
<stop offset="1" stop-color="#FF6B00"/>
</linearGradient>
</defs>
</svg>
