<svg width="40" height="40" viewBox="0 0 40 40" fill="none" xmlns="http://www.w3.org/2000/svg">
<path fill-rule="evenodd" clip-rule="evenodd" d="M18.4283 6.01748C18.5054 6.00055 18.5846 5.99588 18.6631 6.00364L24.1988 6.55101C24.2795 6.55899 24.3585 6.58003 24.4325 6.61329L30.5217 9.35013C30.6305 9.399 30.726 9.47309 30.8004 9.56625L34.9522 14.7663C35.0238 14.856 35.0739 14.961 35.0986 15.0732L36.4825 21.3679C36.5297 21.5825 36.4804 21.8071 36.3476 21.9822L32.1958 27.4559C32.029 27.6757 31.7551 27.7862 31.4825 27.7437L26.7381 27.0029L25.7054 28.841V32.75C25.7054 33.0487 25.5281 33.3189 25.2542 33.4379C24.9802 33.5569 24.6618 33.502 24.4435 33.2981L19.6775 28.8474H14.1607C13.9082 28.8474 13.6727 28.7203 13.534 28.5093L10.0661 23.2339L4.75094 21.1316C4.47698 21.0233 4.29183 20.7646 4.27766 20.4703L4.00087 14.7229C3.99063 14.5102 4.07126 14.3032 4.22267 14.1535L10.5887 7.8588C10.6896 7.75909 10.8166 7.69001 10.9551 7.65958L18.4283 6.01748ZM11.3846 22.5089L14.265 26.8907L20.2145 20.5554L13.4642 15.8832L11.3846 22.5089ZM15.0211 15.1366L21.0763 19.3277L23.902 13.7395L15.0211 15.1366ZM24.3417 12.1519L23.4997 7.9892L18.953 7.53962L14.6755 13.6725L24.3417 12.1519ZM13.318 12.9966L12.0725 8.94985L16.8769 7.89417L13.318 12.9966ZM10.7633 9.7956L12.038 13.9368H6.57519L10.7633 9.7956ZM5.53699 15.4368H12.0321L10.0884 21.6296L5.75264 19.9148L5.53699 15.4368ZM25.1497 8.58017L29.7414 10.6439L32.3526 13.9144L25.8753 12.1677L25.1497 8.58017ZM33.0211 15.6483L25.6261 13.6541L22.557 19.7234L29.3262 19.9465L33.0211 15.6483ZM29.1013 21.4399L23.0485 21.2404L26.7262 25.4829L30.5284 26.0765L29.1013 21.4399ZM31.8847 25.3839L34.9431 21.3517L33.956 16.8618L30.4993 20.8829L31.8847 25.3839ZM25.427 26.2742L21.8167 22.1094L20.8541 27.4396L24.5444 27.8451L25.427 26.2742ZM24.2054 29.3169L22.1343 29.0893L24.2054 31.0234V29.3169ZM19.3465 27.3474L20.1686 22.7955L15.8939 27.3474H19.3465Z" fill="url(#paint0_linear_609_3)"/>
<defs>
<linearGradient id="paint0_linear_609_3" x1="8.625" y1="12.1667" x2="28.2273" y2="32.9418" gradientUnits="userSpaceOnUse">
<stop stop-color="#FF65CB"/>
<stop offset="1" stop-color="#FF6B00"/>
</linearGradient>
</defs>
</svg>
