<svg width="50" height="32" viewBox="0 0 50 32" fill="none" xmlns="http://www.w3.org/2000/svg">
<path fill-rule="evenodd" clip-rule="evenodd" d="M14.4283 4.39248C14.5054 4.37555 14.5846 4.37088 14.6631 4.37864L20.1988 4.92601C20.2795 4.93399 20.3585 4.95503 20.4325 4.98829L26.5217 7.72513C26.6305 7.774 26.726 7.84809 26.8004 7.94125L30.9522 13.1413C31.0238 13.231 31.0739 13.336 31.0986 13.4482L32.4825 19.7429C32.5297 19.9575 32.4804 20.1821 32.3476 20.3572L28.1958 25.8309C28.029 26.0507 27.7551 26.1612 27.4825 26.1187L22.7381 25.3779L21.7054 27.216V31.125C21.7054 31.4237 21.5281 31.6939 21.2542 31.8129C20.9802 31.9319 20.6618 31.877 20.4435 31.6731L15.6775 27.2224H10.1607C9.90823 27.2224 9.67269 27.0953 9.534 26.8843L6.06608 21.6089L0.750941 19.5066C0.476976 19.3983 0.291827 19.1396 0.277655 18.8453L0.000869357 13.0979C-0.00937275 12.8852 0.0712635 12.6782 0.222667 12.5285L6.58874 6.2338C6.68957 6.13409 6.81661 6.06501 6.95511 6.03458L14.4283 4.39248ZM7.38459 20.8839L10.265 25.2657L16.2144 18.9304L9.46416 14.2582L7.38459 20.8839ZM11.0211 13.5116L17.0763 17.7027L19.902 12.1145L11.0211 13.5116ZM20.3417 10.5269L19.4997 6.3642L14.953 5.91462L10.6755 12.0475L20.3417 10.5269ZM9.31805 11.3716L8.07247 7.32485L12.8769 6.26917L9.31805 11.3716ZM6.76334 8.17061L8.038 12.3118H2.57519L6.76334 8.17061ZM1.53699 13.8118H8.0321L6.08842 20.0046L1.75264 18.2898L1.53699 13.8118ZM21.1497 6.95517L25.7414 9.01893L28.3526 12.2894L21.8753 10.5427L21.1497 6.95517ZM29.0211 14.0233L21.6261 12.0291L18.557 18.0984L25.3262 18.3215L29.0211 14.0233ZM25.1013 19.8149L19.0485 19.6154L22.7262 23.8579L26.5284 24.4515L25.1013 19.8149ZM27.8847 23.7589L30.9431 19.7267L29.956 15.2368L26.4993 19.2579L27.8847 23.7589ZM21.427 24.6492L17.8167 20.4844L16.8541 25.8146L20.5444 26.2201L21.427 24.6492ZM20.2054 27.6919L18.1343 27.4643L20.2054 29.3984V27.6919ZM15.3465 25.7224L16.1686 21.1705L11.8939 25.7224H15.3465Z" fill="url(#paint0_linear_623_7820)"/>
<rect x="15.25" y="0.625" width="34" height="13" rx="6.5" fill="white"/>
<path d="M19.9938 10.1248H19.062L21.1558 4.30664H22.17L24.2637 10.1248H23.3319L21.687 5.36346H21.6416L19.9938 10.1248ZM20.1501 7.84641H23.1728V8.58505H20.1501V7.84641Z" fill="#E93D82"/>
<path d="M25.1039 10.1248V4.30664H25.9818V9.36914H28.6181V10.1248H25.1039Z" fill="#E93D82"/>
<path d="M29.6195 10.1248V4.30664H31.6934C32.1461 4.30664 32.5211 4.38903 32.8184 4.5538C33.1158 4.71857 33.3383 4.94395 33.486 5.22994C33.6337 5.51403 33.7076 5.8341 33.7076 6.19016C33.7076 6.54812 33.6328 6.87009 33.4832 7.15607C33.3354 7.44016 33.112 7.66554 32.8127 7.83221C32.5154 7.99698 32.1413 8.07937 31.6906 8.07937H30.2644V7.33505H31.611C31.897 7.33505 32.129 7.28581 32.307 7.18732C32.4851 7.08694 32.6158 6.95058 32.6991 6.77823C32.7824 6.60588 32.8241 6.40986 32.8241 6.19016C32.8241 5.97047 32.7824 5.77539 32.6991 5.60494C32.6158 5.43448 32.4841 5.30096 32.3042 5.20437C32.1262 5.10778 31.8913 5.05948 31.5997 5.05948H30.4974V10.1248H29.6195Z" fill="#E93D82"/>
<path d="M34.7367 10.1248V4.30664H35.6146V6.83505H38.5151V4.30664H39.3958V10.1248H38.5151V7.58789H35.6146V10.1248H34.7367Z" fill="#E93D82"/>
<path d="M41.1657 10.1248H40.2339L42.3276 4.30664H43.3418L45.4356 10.1248H44.5038L42.8589 5.36346H42.8134L41.1657 10.1248ZM41.322 7.84641H44.3447V8.58505H41.322V7.84641Z" fill="#E93D82"/>
<rect x="15.25" y="0.625" width="34" height="13" rx="6.5" stroke="#E93D82"/>
<defs>
<linearGradient id="paint0_linear_623_7820" x1="4.625" y1="10.5417" x2="24.2273" y2="31.3168" gradientUnits="userSpaceOnUse">
<stop stop-color="#FF65CB"/>
<stop offset="1" stop-color="#FF6B00"/>
</linearGradient>
</defs>
</svg>
